<svg xmlns="http://www.w3.org/2000/svg">
<g clip-path="url(#clip0_101_69)">
<path d="M6.5825 12.2063C7.16736 10.4368 8.29608 8.89727 9.80765 7.80725C11.3192 6.71723 13.1364 6.13242 15 6.13625C17.1125 6.13625 19.0225 6.88625 20.5225 8.11375L24.8875 3.75C22.2275 1.43125 18.8188 0 15 0C9.0875 0 3.9975 3.3725 1.55 8.3125L6.5825 12.2063Z" fill="#EA4335"/>
<path d="M20.05 22.5163C18.6875 23.395 16.9575 23.8638 15 23.8638C13.1439 23.8676 11.3335 23.2874 9.82531 22.2055C8.3171 21.1235 7.18744 19.5945 6.59626 17.835L1.54626 21.6688C2.78532 24.1766 4.70285 26.2867 7.08104 27.7594C9.45924 29.2321 12.2028 30.0084 15 30C18.6663 30 22.1688 28.6963 24.7925 26.25L20.0513 22.5163H20.05Z" fill="#34A853"/>
<path d="M24.7925 26.25C27.5363 23.69 29.3175 19.88 29.3175 15C29.3175 14.1125 29.1813 13.1587 28.9775 12.2725H15V18.0687H23.045C22.6488 20.0175 21.5825 21.5262 20.0513 22.5162L24.7925 26.25Z" fill="#4A90E2"/>
<path d="M6.59626 17.835C6.29045 16.9211 6.1351 15.9637 6.13626 15C6.13626 14.0225 6.29251 13.0837 6.58251 12.2062L1.55001 8.3125C0.520481 10.3909 -0.0102373 12.6806 8.23908e-06 15C8.23908e-06 17.4 0.556258 19.6625 1.54626 21.6687L6.59626 17.835Z" fill="#FBBC05"/>
</g>
<defs>
<clipPath id="clip0_101_69">
<rect width="30" height="30" fill="white"/>
</clipPath>
</defs>
</svg>
